Coordinates
version=1
nRows=24
nColumns=24
inDegrees=yes

Units are S.I. units (second, meters, Newtons, ...)
Angles are in degrees.

endheader
time	pelvis_tilt	pelvis_list	pelvis_rotation	pelvis_tx	pelvis_ty	pelvis_tz	hip_flexion_r	hip_adduction_r	hip_rotation_r	knee_angle_r	ankle_angle_r	subtalar_angle_r	mtp_angle_r	hip_flexion_l	hip_adduction_l	hip_rotation_l	knee_angle_l	ankle_angle_l	subtalar_angle_l	mtp_angle_l	lumbar_extension	lumbar_bending	lumbar_rotation
      3.21000000	    -14.38628148	     11.03147102	     -8.65842401	     -0.81854588	     -0.02406092	      0.03943339	     18.45355211	    -17.16869293	     -1.90879466	    -55.82382377	    -27.34298117	      7.29651981	     36.26420953	     30.69575355	      8.24358035	    -15.50597113	    -15.84077102	     -9.48734961	      1.00485366	      6.80817698	     15.05398117	    -12.65306841	      8.76392005
      3.21500000	    -14.23293417	     11.03344146	     -8.58607242	     -0.81227092	     -0.02282095	      0.03863308	     19.09337664	    -17.11455682	     -1.62033632	    -56.81152669	    -26.58538503	      7.20800239	     36.43538075	     29.91005637	      8.50815434	    -15.43992151	    -15.39386381	     -9.17257175	      1.24899660	      6.68295851	     14.88793040	    -12.68077416	      8.48800998
      3.22000000	    -14.12429064	     10.97462668	     -8.46228752	     -0.80608167	     -0.02161903	      0.03775482	     19.75438369	    -17.00119152	     -1.41332980	    -57.73791263	    -25.89501327	      7.20839497	     36.63615971	     29.17680589	      8.72248948	    -15.28152258	    -14.96153770	     -8.94413167	      1.43958995	      6.74260233	     14.73341269	    -12.64857982	      8.17545505
      3.22500000	    -13.99671409	     10.88605392	     -8.35911777	     -0.79987525	     -0.02036713	      0.03688522	     20.37601670	    -16.84281220	     -1.18315074	    -58.57016579	    -25.25049857	      7.40157943	     36.91683415	     28.40736728	      8.89863081	    -15.15568212	    -14.50664999	     -8.73480368	      1.64137788	      6.85009806	     14.56716948	    -12.57795923	      7.86222394
      3.23000000	    -13.89055831	     10.75635886	     -8.23626809	     -0.79367134	     -0.01915057	      0.03598514	     20.99249704	    -16.64239681	     -1.00536787	    -59.33005009	    -24.64578968	      7.67525132	     37.25997742	     27.66145435	      9.03246744	    -14.99566429	    -14.07100894	     -8.52032069	      1.84022229	      6.99099972	     14.41843921	    -12.46123016	      7.54802508
      3.23500000	    -13.77068906	     10.60635971	     -8.10871634	     -0.78752248	     -0.01788246	      0.03508145	     21.57671306	    -16.40735817	     -0.80627481	    -59.99896026	    -24.12381219	      8.10954082	     37.74615563	     26.89686534	      9.14196509	    -14.83900486	    -13.62533822	     -8.35866502	      2.08146311	      7.16132837	     14.24287285	    -12.32615464	      7.18878092
      3.24000000	    -13.66285235	     10.42619785	     -7.96533696	     -0.78137039	     -0.01665412	      0.03414514	     22.14524711	    -16.14154687	     -0.64743158	    -60.59197404	    -23.62772375	      8.59103563	     38.33530610	     26.14372011	      9.22175200	    -14.65559062	    -13.19041070	     -8.18456249	      2.30986971	      7.34372565	     14.07772428	    -12.15659976	      6.82986698
      3.24500000	    -13.46661358	     10.24864937	     -7.83431998	     -0.77522067	     -0.01536538	      0.03322456	     22.59440607	    -15.89661716	     -0.52747959	    -61.06310655	    -23.23424714	      8.92635881	     39.65753980	     25.28431457	      9.31384772	    -14.46725005	    -12.72490260	     -8.05728519	      2.50561402	      7.62130192	     13.82137191	    -12.00073675	      6.50327217
      3.25000000	    -13.43934220	     10.02094217	     -7.62799218	     -0.76909051	     -0.01426999	      0.03220239	     23.19325611	    -15.57966326	     -0.44775357	    -61.52249413	    -22.73993223	      9.52117241	     40.34729660	     24.62523307	      9.34650535	    -14.20772720	    -12.32811087	     -7.87378226	      2.70001539	      7.71468402	     13.73298771	    -11.77866550	      6.08231539
      3.25500000	    -13.39606826	      9.76402433	     -7.45226145	     -0.76303383	     -0.01315963	      0.03124642	     23.77666084	    -15.20728362	     -0.34146615	    -61.92861638	    -22.28108610	     10.17310111	     40.86904351	     23.94422716	      9.33182115	    -13.89810445	    -11.92733716	     -7.68455085	      2.88088024	      7.78518123	     13.62228420	    -11.52152560	      5.71051820
      3.26000000	    -13.24715331	      9.54790120	     -7.22105843	     -0.75690522	     -0.01202173	      0.03015716	     24.20061876	    -14.94881800	     -0.34477820	    -62.23308994	    -21.80563065	     10.70091906	     41.96582779	     23.13783559	      9.41384741	    -13.51029484	    -11.50119112	     -7.51813796	      2.95764263	      7.74328331	     13.39936109	    -11.33173852	      5.28268576
      3.26500000	    -13.24572067	      9.26536282	     -7.03147718	     -0.75088537	     -0.01102460	      0.02919676	     24.80245102	    -14.53771374	     -0.27340951	    -62.52979534	    -21.33412934	     11.34013360	     42.41222173	     22.50618845	      9.35855463	    -13.16717865	    -11.11541984	     -7.32326821	      3.10436735	      7.76838059	     13.33326629	    -11.04127432	      4.91494912
      3.27000000	    -13.13175964	      9.01572632	     -6.77364636	     -0.74480028	     -0.00998028	      0.02808995	     25.23456046	    -14.24519184	     -0.33496941	    -62.73350804	    -20.85312489	     11.83931543	     43.27657004	     21.73273730	      9.40059928	    -12.63739883	    -10.69921232	     -7.14103980	      3.08209825	      7.56935307	     13.14540710	    -10.81497019	      4.48984067
      3.27500000	    -13.10055467	      8.76027296	     -6.53014807	     -0.73882196	     -0.00908772	      0.02704831	     25.77553316	    -13.90777389	     -0.35831375	    -62.93488651	    -20.31714971	     12.38543390	     43.72235684	     21.08279333	      9.39183474	    -12.25967053	    -10.32796723	     -6.95380226	      3.15955186	      7.49961195	     13.04117325	    -10.56886935	      4.05320525
      3.28000000	    -13.07447255	      8.48415892	     -6.30611998	     -0.73282989	     -0.00820191	      0.02604493	     26.31181751	    -13.53465283	     -0.37955734	    -63.07524673	    -19.82646771	     12.87255999	     44.03146954	     20.42322448	      9.34711740	    -11.84431224	     -9.93350525	     -6.77844466	      3.21994690	      7.43541436	     12.95248324	    -10.29313501	      3.66896088
      3.28500000	    -13.01937035	      8.21767580	     -6.03597874	     -0.72683796	     -0.00735862	      0.02496382	     26.79220625	    -13.21393537	     -0.47874021	    -63.16797975	    -19.30579629	     13.27644822	     44.31162317	     19.73563717	      9.33062110	    -11.37758560	     -9.54555324	     -6.60660764	      3.24008149	      7.32377256	     12.82669610	    -10.04207621	      3.23295103
      3.29000000	    -12.95387343	      7.95087336	     -5.75799464	     -0.72086981	     -0.00654808	      0.02386942	     27.25236406	    -12.90313967	     -0.61012132	    -63.21327996	    -18.79554519	     13.55425991	     44.52008015	     19.03948233	      9.31042994	    -10.90126547	     -9.15919094	     -6.43696427	      3.24277671	      7.18682843	     12.68989337	     -9.79291559	      2.79291199
      3.29500000	    -12.89409416	      7.68946903	     -5.47967176	     -0.71492785	     -0.00579360	      0.02278192	     27.71611629	    -12.60114603	     -0.75922239	    -63.21815981	    -18.28676407	     13.72631770	     44.63562974	     18.35690436	      9.28276053	    -10.45503401	     -8.77861422	     -6.26885913	      3.27503716	      7.07609715	     12.56040278	     -9.54554446	      2.36386559
      3.30000000	    -12.83874833	      7.43057637	     -5.19451510	     -0.70900653	     -0.00509714	      0.02168121	     28.17804873	    -12.30980466	     -0.93026536	    -63.18070411	    -17.78361993	     13.80237954	     44.65554637	     17.68577384	      9.24808182	    -10.04160419	     -8.40200912	     -6.10154317	      3.34472514	      7.01058285	     12.43770752	     -9.29934322	      1.93420231
      3.30500000	    -12.77880560	      7.17382641	     -4.89961230	     -0.70310923	     -0.00444208	      0.02056683	     28.62628159	    -12.03180113	     -1.12751716	    -63.10049996	    -17.28288317	     13.77918135	     44.57138035	     17.01630682	      9.20827315	     -9.65435947	     -8.02944530	     -5.94203054	      3.44554324	      6.98551073	     12.30919440	     -9.05708745	      1.49302085
      3.31000000	    -12.72123217	      6.91781544	     -4.59950069	     -0.69722916	     -0.00383643	      0.01944337	     29.06826172	    -11.76211208	     -1.34384059	    -62.97609665	    -16.78460642	     13.67468981	     44.38463455	     16.35526974	      9.15970570	     -9.29787593	     -7.65925792	     -5.78793021	      3.58157506	      7.01098259	     12.18462768	     -8.81457819	      1.04990672
      3.31500000	    -12.66860840	      6.66388292	     -4.29401548	     -0.69138720	     -0.00328492	      0.01831383	     29.50789030	    -11.50245672	     -1.57961322	    -62.80816650	    -16.28131902	     13.49554006	     44.10566145	     15.70828964	      9.10354653	     -8.96761310	     -7.29459954	     -5.63752772	      3.74840366	      7.08452922	     12.06437784	     -8.57229581	      0.60947358
      3.32000000	    -12.61464697	      6.41201037	     -3.98520880	     -0.68556533	     -0.00277747	      0.01717833	     29.93551324	    -11.25237097	     -1.82971342	    -62.59510535	    -15.76932830	     13.25942989	     43.71456066	     15.06513249	      9.04116277	     -8.65782849	     -6.93124519	     -5.49572326	      3.93472462	      7.19393082	     11.94349373	     -8.33208881	      0.16113142
      3.32500000	    -12.57103154	      6.16344222	     -3.67510834	     -0.67977115	     -0.00233744	      0.01603876	     30.36513818	    -11.01055262	     -2.08964272	    -62.33718320	    -15.24374713	     12.97323338	     43.25295651	     14.44159589	      8.97274988	     -8.35742856	     -6.57708494	     -5.35105543	      4.12925360	      7.32258078	     11.83516673	     -8.09138166	     -0.27334149
